<svg xmlns="http://www.w3.org/2000/svg" xmlns:svg="http://www.w3.org/2000/svg" id="svg2" width="744.094" height="1052.362" version="1.1"><defs id="defs4"><filter id="filter4004" width="1.27" height="1.173" x="-.135" y="-.086"><feGaussianBlur id="feGaussianBlur4006" stdDeviation="17.647"/></filter></defs><metadata id="metadata7"/><g id="layer1"><path id="path3994" d="m 270.78049,352.12334 47.66559,0 c 25.25381,0 47.6656,-38.3858 47.6656,-38.3858 0,0 21.8194,38.3858 48.10279,38.3858 l 48.10279,0 c 34.00145,0 61.37447,27.37301 61.37447,61.37447 l 0,328.67962 c 0,34.00145 -27.37302,61.37447 -61.37447,61.37447 l -191.53677,0 c -34.00145,0 -61.37447,-27.37302 -61.37447,-61.37447 l 0,-328.67962 c 0,-34.00146 27.37302,-61.37447 61.37447,-61.37447 z" transform="matrix(1,0,0,0.96323239,0,29.544681)" style="opacity:.35271319;fill:#000;fill-opacity:1;stroke:#000;stroke-width:2;stroke-miterlimit:4;stroke-opacity:.75294118;filter:url(#filter4004)"/><path style="fill:#fff;fill-opacity:1;stroke:#8b8b8b;stroke-width:2;stroke-miterlimit:4;stroke-opacity:.75294118" id="rect2985" d="m 259.66881,331.92029 47.66559,0 c 25.25381,0 47.6656,0.25254 47.6656,0.25254 0,0 21.8194,-0.25254 48.10279,-0.25254 l 48.10279,0 c 34.00145,0 61.37447,27.37301 61.37447,61.37447 l 0,328.67962 c 0,34.00145 -27.37302,61.37447 -61.37447,61.37447 l -191.53677,0 c -34.00145,0 -61.37447,-27.37302 -61.37447,-61.37447 l 0,-328.67962 c 0,-34.00146 27.37302,-61.37447 61.37447,-61.37447 z"/></g></svg>